<?xml version="1.0" encoding="UTF-8" standalone="no"?>
<!-- Created with Inkscape (http://www.inkscape.org/) -->

<svg
   version="1.1"
   id="svg1"
   width="910"
   height="195"
   viewBox="85 295 910 195"
   sodipodi:docname="Brookwill_Logo_03-2026.svg"
   inkscape:version="1.3 (0e150ed, 2023-07-21)"
   xmlns:inkscape="http://www.inkscape.org/namespaces/inkscape"
   xmlns:sodipodi="http://sodipodi.sourceforge.net/DTD/sodipodi-0.dtd"
   xmlns="http://www.w3.org/2000/svg"
   xmlns:svg="http://www.w3.org/2000/svg">
  <defs
     id="defs1" />
  <sodipodi:namedview
     id="namedview1"
     pagecolor="#ffffff"
     bordercolor="#666666"
     borderopacity="1.0"
     inkscape:showpageshadow="2"
     inkscape:pageopacity="0.0"
     inkscape:pagecheckerboard="0"
     inkscape:deskcolor="#d1d1d1"
     inkscape:zoom="0.80761084"
     inkscape:cx="546.05508"
     inkscape:cy="377.03803"
     inkscape:window-width="1920"
     inkscape:window-height="980"
     inkscape:window-x="1600"
     inkscape:window-y="25"
     inkscape:window-maximized="1"
     inkscape:current-layer="group-R5"
     inkscape:document-units="in">
    <inkscape:page
       x="0"
       y="0"
       inkscape:label="1"
       id="page1"
       width="1056"
       height="816"
       margin="0"
       bleed="0" />
  </sodipodi:namedview>
  <g
     id="g1"
     inkscape:groupmode="layer"
     inkscape:label="1">
    <g
       id="group-R5"
       transform="translate(-1012.7916,-739.7782)"
       inkscape:label="BROOKWILL LOGO">
      <g
         id="g37"
         inkscape:label="LOGO"
         transform="matrix(0.58621246,0,0,0.58621246,436.48813,459.41292)"
         style="stroke-width:1.70587">
        <path
           id="path3"
           d="m 8533.89,7967.39 c 245.16,-108.78 536.47,-7.87 650.71,225.27 29.12,59.43 44,121.76 45.75,183.46 l -0.01,0.37 c 0.69,23.74 -0.44,47.23 -3.72,70.58 l -20.61,392.62 -9.16,177.3 -0.34,3.92 -2.48,46.52 -0.09,3.28 c -1.48,109.8 22.16,221.57 74.18,327.75 121.37,247.7 366.51,402.91 632.64,430.17 H 8637.71 c -212.61,0 -384.97,-172.36 -384.97,-384.98 V 8354.91 c 12.75,-162.39 114.86,-313.74 281.15,-387.52"
           style="fill:#4c78c5;fill-opacity:1;fill-rule:nonzero;stroke:none;stroke-width:1.70587"
           transform="matrix(0.13333333,0,0,-0.13333333,0,2293.3333)"
           inkscape:label="Top Left Shape" />
        <path
           id="path4"
           d="m 10318.4,9762.39 c 182.7,-81.06 317.5,-220.19 391.6,-383.53 v 449.77 h -642.4 c 84.7,-8.52 169.4,-30.09 250.8,-66.24"
           style="fill:#4c78c5;fill-opacity:1;fill-rule:nonzero;stroke:none;stroke-width:1.70587"
           transform="matrix(0.13333333,0,0,-0.13333333,0,2293.3333)"
           inkscape:label="Top Right Corner" />
        <path
           id="path5"
           d="m 10428.8,9232.64 c -245,108.71 -536.28,7.81 -650.52,-225.34 -35.7,-72.85 -49.92,-150.01 -45.09,-224.86 l 22.9,-421.82 9.27,-170.53 3.38,-61.64 0.12,-4.37 c 0.82,-108.07 -23.03,-217.95 -74.26,-322.51 -121.37,-247.7 -366.43,-402.94 -632.56,-430.2 H 10325 c 212.6,0 385,172.36 385,384.98 v 1088.48 c -12.7,162.65 -114.9,314.04 -281.2,387.81"
           style="fill:#253a75;fill-opacity:1;fill-rule:nonzero;stroke:none;stroke-width:1.70587"
           transform="matrix(0.13333333,0,0,-0.13333333,0,2293.3333)"
           inkscape:label="Bottom Right Shape" />
        <path
           id="path6"
           d="m 8644.29,7437.64 c -182.7,81.06 -317.51,220.19 -391.55,383.53 v -449.8 h 642.46 c -84.7,8.52 -169.39,30.1 -250.91,66.27"
           style="fill:#253a75;fill-opacity:1;fill-rule:nonzero;stroke:none;stroke-width:1.70587"
           transform="matrix(0.13333333,0,0,-0.13333333,0,2293.3333)"
           inkscape:label="Bottom Left Corner" />
      </g>
      <g
         id="g36"
         inkscape:label="BROOKWILL"
         transform="matrix(0.58621246,0,0,0.58621246,436.48813,459.41292)"
         style="stroke-width:1.70587">
        <path
           id="path15"
           d="m 19742.3,8608.94 v 860.28 h -214.7 V 8418.27 h 699.7 v 190.67 h -485"
           style="fill:#253a75;fill-opacity:1;fill-rule:nonzero;stroke:none;stroke-width:1.70587"
           transform="matrix(0.13333333,0,0,-0.13333333,0,2293.3333)"
           inkscape:label="Last L" />
        <path
           id="path14"
           d="m 18931.6,9469.22 h -214.7 V 8418.27 h 699.6 v 190.67 h -484.9 v 860.28"
           style="fill:#253a75;fill-opacity:1;fill-rule:nonzero;stroke:none;stroke-width:1.70587"
           transform="matrix(0.13333333,0,0,-0.13333333,0,2293.3333)"
           inkscape:label="First L" />
        <path
           id="path13"
           d="m 18340.1,8418.27 h 214.7 v 1050.95 h -214.7 V 8418.27"
           style="fill:#253a75;fill-opacity:1;fill-rule:nonzero;stroke:none;stroke-width:1.70587"
           transform="matrix(0.13333333,0,0,-0.13333333,0,2293.3333)"
           inkscape:label="I" />
        <path
           id="path12"
           d="m 17817.9,8474.56 -154.9,994.66 h -405.4 l -154.2,-990.24 -164.1,990.24 h -214.7 l 172.7,-1050.95 h 196.7 19.5 190.6 l 153.2,983.77 154.6,-983.77 h 196.7 18 195.2 l 174.2,1050.95 h -214.7 l -163.4,-994.66"
           style="fill:#253a75;fill-opacity:1;fill-rule:nonzero;stroke:none;stroke-width:1.70587"
           transform="matrix(0.13333333,0,0,-0.13333333,0,2293.3333)"
           inkscape:label="W" />
        <path
           id="path11"
           d="m 16660.1,9469.22 h -267.3 l -393.3,-449.55 v 449.55 h -214.7 V 8418.27 h 214.7 v 303.27 l 136.3,154.28 317.1,-457.55 h 258.2 l -429,623.13 378,427.82"
           style="fill:#253a75;fill-opacity:1;fill-rule:nonzero;stroke:none;stroke-width:1.70587"
           transform="matrix(0.13333333,0,0,-0.13333333,0,2293.3333)"
           inkscape:label="K" />
        <path
           id="path10"
           d="m 15386.9,8769.59 c -29,-52.06 -68.8,-93.35 -119.3,-123.87 -50.6,-30.54 -106.4,-45.79 -167.4,-45.79 -62.1,0 -118.2,15.25 -168.2,45.79 -50.1,30.52 -89.6,71.81 -118.6,123.87 -29,52.03 -43.5,110.08 -43.5,174.15 0,64.04 14.5,122.11 43.5,174.16 29,52.04 68.8,93.32 119.4,123.87 50.5,30.52 106.3,45.79 167.4,45.79 62,0 118.1,-15.27 168.1,-45.79 50,-30.55 89.6,-71.83 118.6,-123.87 29,-52.05 43.6,-110.12 43.6,-174.16 0,-64.07 -14.6,-122.12 -43.6,-174.15 z m -6.7,643.33 c -84.6,47.53 -177.9,71.31 -280,71.31 -102.1,0 -195.5,-23.78 -280,-71.31 -84.6,-47.55 -151.2,-112.6 -199.7,-195.18 -48.6,-82.57 -72.8,-173.92 -72.8,-274 0,-100.09 24.2,-191.42 72.8,-273.99 48.5,-82.58 115.1,-147.65 199.7,-195.18 84.5,-47.55 177.9,-71.31 280,-71.31 102.1,0 195.4,23.76 280,71.31 84.5,47.53 151.1,112.6 199.6,195.18 48.6,82.57 72.9,173.9 72.9,273.99 0,100.08 -24.3,191.43 -72.9,274 -48.5,82.58 -115.1,147.63 -199.6,195.18"
           style="fill:#253a75;fill-opacity:1;fill-rule:nonzero;stroke:none;stroke-width:1.70587"
           transform="matrix(0.13333333,0,0,-0.13333333,0,2293.3333)"
           inkscape:label="Last O" />
        <path
           id="path9"
           d="m 14182.9,8769.59 c -29.1,-52.06 -68.9,-93.35 -119.4,-123.87 -50.6,-30.54 -106.4,-45.79 -167.4,-45.79 -62.1,0 -118.1,15.25 -168.2,45.79 -50,30.52 -89.6,71.81 -118.6,123.87 -29,52.03 -43.5,110.08 -43.5,174.15 0,64.04 14.5,122.11 43.5,174.16 29,52.04 68.8,93.32 119.4,123.87 50.5,30.52 106.3,45.79 167.4,45.79 62,0 118.1,-15.27 168.1,-45.79 50.1,-30.55 89.6,-71.83 118.7,-123.87 29,-52.05 43.5,-110.12 43.5,-174.16 0,-64.07 -14.5,-122.12 -43.5,-174.15 z m -6.8,643.33 c -84.6,47.53 -177.9,71.31 -280,71.31 -102.1,0 -195.4,-23.78 -280,-71.31 -84.6,-47.55 -151.2,-112.6 -199.7,-195.18 -48.6,-82.57 -72.8,-173.92 -72.8,-274 0,-100.09 24.2,-191.42 72.8,-273.99 48.5,-82.58 115.1,-147.65 199.7,-195.18 84.6,-47.55 177.9,-71.31 280,-71.31 102.1,0 195.4,23.76 280,71.31 84.6,47.53 151.1,112.6 199.7,195.18 48.5,82.57 72.8,173.9 72.8,273.99 0,100.08 -24.3,191.43 -72.8,274 -48.6,82.58 -115.1,147.63 -199.7,195.18"
           style="fill:#253a75;fill-opacity:1;fill-rule:nonzero;stroke:none;stroke-width:1.70587"
           transform="matrix(0.13333333,0,0,-0.13333333,0,2293.3333)"
           inkscape:label="First O" />
        <path
           id="path8"
           d="m 12647,9278.55 h 237.2 c 29,0 54.8,-6.26 77.3,-18.77 22.5,-12.52 40.3,-29.79 53.3,-51.79 13,-22.03 19.5,-47.07 19.5,-75.07 0,-27.03 -6.5,-51.57 -19.5,-73.57 -13,-22.03 -30.8,-39.29 -53.3,-51.8 -22.5,-12.53 -48.3,-18.76 -77.3,-18.76 H 12647 Z m 431.6,-442.16 c 56.5,29.52 100.1,69.82 130.6,120.87 30.5,51.04 45.8,108.59 45.8,172.65 0,64.05 -15.3,121.85 -45.8,173.41 -30.5,51.54 -74.1,92.08 -130.6,121.61 -56.6,29.52 -121.4,44.29 -194.4,44.29 h -451.9 V 8418.27 h 214.7 v 373.83 h 134.4 l 246.9,-373.83 h 255.2 l -260.7,394.85 c 19.4,6.36 38,14 55.8,23.27"
           style="fill:#253a75;fill-opacity:1;fill-rule:nonzero;stroke:none;stroke-width:1.70587"
           transform="matrix(0.13333333,0,0,-0.13333333,0,2293.3333)"
           inkscape:label="R" />
        <path
           id="path7"
           d="m 12054.7,8664.49 c -11.5,-19.03 -27.6,-34.04 -48.1,-45.04 -20.5,-11.03 -44.8,-16.51 -72.8,-16.51 h -256.7 v 252.22 h 256.7 c 28,0 52.3,-5.51 72.8,-16.51 20.5,-11.03 36.6,-25.78 48.1,-44.29 11.5,-18.53 17.2,-40.3 17.2,-65.31 0,-24.02 -5.7,-45.56 -17.2,-64.56 z m -377.6,620.06 h 228.2 c 28,0 52.5,-5.25 73.6,-15.76 21,-10.51 37.2,-25.29 48.7,-44.29 11.5,-19.03 17.3,-40.54 17.3,-64.56 0,-25.03 -5.8,-46.8 -17.3,-65.31 -11.5,-18.53 -27.7,-33.55 -48.7,-45.04 -21.1,-11.52 -45.6,-17.26 -73.6,-17.26 h -228.2 z m 457.1,-367.08 c -34.6,15.35 -74.1,25.13 -118.2,29.53 26.4,5.22 50.8,12.58 73.2,22.27 48.5,21.02 86.3,50.79 113.4,89.33 27,38.52 40.5,83.33 40.5,134.37 0,51.05 -13.3,97.59 -39.8,139.63 -26.5,42.03 -63.8,75.3 -111.8,99.84 -48.1,24.51 -103.1,36.78 -165.2,36.78 h -457.9 V 8418.27 h 502.9 c 62.1,0 117.2,11.75 165.2,35.28 48,23.5 85.3,56.3 111.8,98.34 26.6,42.04 39.8,88.58 39.8,139.63 0,52.03 -13.5,97.32 -40.5,135.87 -27,38.52 -64.8,68.54 -113.4,90.08"
           style="fill:#253a75;fill-opacity:1;fill-rule:nonzero;stroke:none;stroke-width:1.70587"
           transform="matrix(0.13333333,0,0,-0.13333333,0,2293.3333)"
           inkscape:label="B" />
      </g>
      <g
         id="g35"
         inkscape:label="TECHNOLOGY"
         transform="matrix(0.58621246,0,0,0.58621246,436.48813,459.41292)"
         style="stroke-width:1.70587">
        <path
           id="path25"
           d="m 16047.7,8155.05 -119.8,-215.59 -120.3,215.59 h -80.4 l 164.6,-283.4 v -155.89 h 68 v 155.89 l 164.6,283.4 h -76.7"
           style="fill:#4c78c5;fill-opacity:1;fill-rule:nonzero;stroke:none;stroke-width:1.70587"
           transform="matrix(0.13333333,0,0,-0.13333333,0,2293.3333)"
           inkscape:label="Y" />
        <path
           id="path24"
           d="m 15270.9,8051.39 c 20,34.03 47.3,60.83 81.7,80.43 34.4,19.58 72.7,29.38 114.8,29.38 31.3,0 60.3,-5.78 86.9,-17.32 26.6,-11.55 49.5,-26.71 68.7,-45.48 19.1,-18.77 33.9,-39.7 44.2,-62.78 l -63.1,-24.75 c -12,25.98 -30.1,47.01 -54.5,63.09 -24.3,16.09 -51.7,24.14 -82.2,24.14 -28.9,0 -55.3,-7.02 -79.2,-21.04 -23.9,-14.03 -42.7,-33.2 -56.3,-57.53 -13.6,-24.35 -20.4,-51.35 -20.4,-81.05 0,-29.69 6.8,-56.71 20.4,-81.04 13.6,-24.34 32.4,-43.52 56.3,-57.53 23.9,-14.03 50.3,-21.04 79.2,-21.04 28,0 53.3,6.49 75.7,19.49 22.5,12.99 40,29.9 52.3,50.73 12.4,20.82 18.6,42.78 18.6,65.89 l 13.6,-15.47 h -195.5 v 61.25 h 254.9 c 4.1,-47.03 -3.5,-89.19 -22.9,-126.52 -19.4,-37.33 -46.7,-66.41 -82,-87.23 -35.2,-20.83 -73.5,-31.24 -114.7,-31.24 -42.1,0 -80.4,9.79 -114.8,29.39 -34.4,19.58 -61.7,46.39 -81.7,80.42 -20,34.03 -30,71.66 -30,112.9 0,41.25 10,78.89 30,112.91"
           style="fill:#4c78c5;fill-opacity:1;fill-rule:nonzero;stroke:none;stroke-width:1.70587"
           transform="matrix(0.13333333,0,0,-0.13333333,0,2293.3333)"
           inkscape:label="G" />
        <path
           id="path23"
           d="m 14785,7857.44 c 13.6,-24.34 32.3,-43.52 56,-57.53 23.7,-14.03 50.2,-21.04 79.5,-21.04 28.8,0 55.1,7.01 78.8,21.04 23.8,14.01 42.4,33.19 56,57.53 13.7,24.33 20.5,51.35 20.5,81.04 0,29.7 -6.8,56.7 -20.5,81.05 -13.6,24.33 -32.2,43.5 -56,57.53 -23.7,14.02 -50,21.04 -78.8,21.04 -28.9,0 -55.3,-7.02 -79.2,-21.04 -23.9,-14.03 -42.7,-33.2 -56.3,-57.53 -13.6,-24.35 -20.4,-51.35 -20.4,-81.05 0,-29.69 6.8,-56.71 20.4,-81.04 z m -61.3,193.95 c 19.8,34.03 47.1,60.83 81.7,80.43 34.6,19.58 72.8,29.38 114.4,29.38 42.1,0 80.5,-9.8 115.1,-29.38 34.7,-19.6 61.9,-46.4 81.7,-80.43 19.8,-34.02 29.7,-71.66 29.7,-112.91 0,-41.24 -9.9,-78.87 -29.7,-112.9 -19.8,-34.03 -47,-60.84 -81.7,-80.42 -34.6,-19.6 -73,-29.39 -115.1,-29.39 -41.6,0 -79.8,9.79 -114.4,29.39 -34.6,19.58 -61.9,46.39 -81.7,80.42 -19.8,34.03 -29.7,71.66 -29.7,112.9 0,41.25 9.9,78.89 29.7,112.91"
           style="fill:#4c78c5;fill-opacity:1;fill-rule:nonzero;stroke:none;stroke-width:1.70587"
           transform="matrix(0.13333333,0,0,-0.13333333,0,2293.3333)"
           inkscape:label="Last O" />
        <path
           id="path22"
           d="m 14358.1,8155.01 h 68.7 V 7783.2 h 208.5 v -61.25 h -277.2 v 433.06"
           style="fill:#4c78c5;fill-opacity:1;fill-rule:nonzero;stroke:none;stroke-width:1.70587"
           transform="matrix(0.13333333,0,0,-0.13333333,0,2293.3333)"
           inkscape:label="L" />
        <path
           id="path21"
           d="m 13886.7,7857.44 c 13.6,-24.34 32.3,-43.52 56,-57.53 23.7,-14.03 50.2,-21.04 79.5,-21.04 28.8,0 55.1,7.01 78.9,21.04 23.7,14.01 42.3,33.19 56,57.53 13.6,24.33 20.4,51.35 20.4,81.04 0,29.7 -6.8,56.7 -20.4,81.05 -13.7,24.33 -32.3,43.5 -56,57.53 -23.8,14.02 -50.1,21.04 -78.9,21.04 -28.9,0 -55.3,-7.02 -79.2,-21.04 -23.9,-14.03 -42.7,-33.2 -56.3,-57.53 -13.6,-24.35 -20.4,-51.35 -20.4,-81.05 0,-29.69 6.8,-56.71 20.4,-81.04 z m -61.2,193.95 c 19.8,34.03 47,60.83 81.6,80.43 34.7,19.58 72.8,29.38 114.5,29.38 42,0 80.4,-9.8 115,-29.38 34.7,-19.6 61.9,-46.4 81.7,-80.43 19.8,-34.02 29.7,-71.66 29.7,-112.91 0,-41.24 -9.9,-78.87 -29.7,-112.9 -19.8,-34.03 -47,-60.84 -81.7,-80.42 -34.6,-19.6 -73,-29.39 -115,-29.39 -41.7,0 -79.8,9.79 -114.5,29.39 -34.6,19.58 -61.8,46.39 -81.6,80.42 -19.8,34.03 -29.7,71.66 -29.7,112.9 0,41.25 9.9,78.89 29.7,112.91"
           style="fill:#4c78c5;fill-opacity:1;fill-rule:nonzero;stroke:none;stroke-width:1.70587"
           transform="matrix(0.13333333,0,0,-0.13333333,0,2293.3333)"
           inkscape:label="First O" />
        <path
           id="path20"
           d="m 13309.5,8155.01 h 66.8 l 303.2,-402.12 -61.9,-19.18 v 421.3 h 68 v -433.06 h -66.8 l -302.5,402.13 61.9,19.18 v -421.31 h -68.7 v 433.06"
           style="fill:#4c78c5;fill-opacity:1;fill-rule:nonzero;stroke:none;stroke-width:1.70587"
           transform="matrix(0.13333333,0,0,-0.13333333,0,2293.3333)"
           inkscape:label="N" />
        <path
           id="path19"
           d="m 12817.7,8155.01 h 68.6 v -186.22 h 232.7 v 186.22 h 68 v -433.06 h -68 v 186.22 h -232.7 v -186.22 h -68.6 v 433.06"
           style="fill:#4c78c5;fill-opacity:1;fill-rule:nonzero;stroke:none;stroke-width:1.70587"
           transform="matrix(0.13333333,0,0,-0.13333333,0,2293.3333)"
           inkscape:label="H" />
        <path
           id="path18"
           d="m 12311.3,8051.39 c 20,34.03 47.2,60.83 81.7,80.43 34.4,19.58 72.6,29.38 114.7,29.38 31.4,0 60.3,-5.78 86.9,-17.32 26.6,-11.55 49.5,-26.71 68.7,-45.48 19.2,-18.77 33.9,-39.7 44.2,-62.78 l -63.1,-24.75 c -11.9,25.98 -30.1,47.01 -54.4,63.09 -24.3,16.09 -51.8,24.14 -82.3,24.14 -28.9,0 -55.3,-7.02 -79.2,-21.04 -23.9,-14.03 -42.7,-33.2 -56.3,-57.53 -13.6,-24.35 -20.4,-51.35 -20.4,-81.05 0,-29.69 6.8,-56.71 20.4,-81.04 13.6,-24.34 32.4,-43.52 56.3,-57.53 23.9,-14.03 50.3,-21.04 79.2,-21.04 30.5,0 58,8.04 82.3,24.13 24.3,16.08 42.5,37.12 54.4,63.1 l 63.1,-24.74 c -10.3,-23.11 -25,-44.04 -44.2,-62.8 -19.2,-18.77 -42.1,-33.93 -68.7,-45.47 -26.6,-11.54 -55.5,-17.32 -86.9,-17.32 -42.1,0 -80.3,9.79 -114.7,29.39 -34.5,19.58 -61.7,46.39 -81.7,80.42 -20,34.03 -30,71.66 -30,112.9 0,41.25 10,78.89 30,112.91"
           style="fill:#4c78c5;fill-opacity:1;fill-rule:nonzero;stroke:none;stroke-width:1.70587"
           transform="matrix(0.13333333,0,0,-0.13333333,0,2293.3333)"
           inkscape:label="C" />
        <path
           id="path17"
           d="m 11908.2,8155.01 h 277.2 v -61.24 h -208.5 v -124.98 h 202.3 v -60.62 h -202.3 V 7783.2 h 208.5 v -61.25 h -277.2 v 433.06"
           style="fill:#4c78c5;fill-opacity:1;fill-rule:nonzero;stroke:none;stroke-width:1.70587"
           transform="matrix(0.13333333,0,0,-0.13333333,0,2293.3333)"
           inkscape:label="E" />
        <path
           id="path16"
           d="m 11608.2,8093.77 h -139.8 v 61.24 h 347.7 v -61.24 h -139.8 v -371.82 h -68.1 v 371.82"
           style="fill:#4c78c5;fill-opacity:1;fill-rule:nonzero;stroke:none;stroke-width:1.70587"
           transform="matrix(0.13333333,0,0,-0.13333333,0,2293.3333)"
           inkscape:label="T" />
      </g>
      <g
         id="g34"
         inkscape:label="SOLUTIONS"
         transform="matrix(0.58621246,0,0,0.58621246,436.48813,459.41292)"
         style="stroke-width:1.70587">
        <path
           id="path34"
           d="m 20002.4,7794.64 c 16.7,-12.58 39.1,-18.86 67.1,-18.86 16.9,0 32,2.68 45.2,8.04 13.2,5.35 23.5,12.77 30.9,22.27 7.4,9.48 11.1,20.2 11.1,32.17 0,14.43 -4.3,26.08 -13,34.96 -8.6,8.86 -19.7,15.87 -33,21.03 -13.5,5.15 -31.5,10.83 -54.2,17.01 -30.5,7.83 -55.3,15.78 -74.2,23.82 -19,8.04 -35.3,20.42 -48.9,37.12 -13.6,16.7 -20.4,38.87 -20.4,66.51 0,23.09 6.6,43.92 19.8,62.48 13.2,18.56 31.4,33.19 54.7,43.93 23.3,10.72 49.2,16.08 77.7,16.08 28.8,0 54.5,-5.06 77,-15.16 22.5,-10.11 40.6,-24.13 54.4,-42.06 13.9,-17.94 22.6,-38.47 26.3,-61.56 l -69.3,-14.24 c -3.7,21.87 -13.5,39.49 -29.3,52.91 -15.9,13.39 -36.4,20.1 -61.6,20.1 -15.3,0 -28.9,-2.48 -40.8,-7.42 -12,-4.95 -21.4,-11.97 -28.2,-21.04 -6.8,-9.07 -10.2,-19.17 -10.2,-30.31 0,-13.61 4.2,-24.54 12.7,-32.79 8.4,-8.26 19,-14.75 31.5,-19.49 12.6,-4.75 30.1,-10 52.3,-15.77 31,-8.26 56.1,-16.51 75.5,-24.75 19.4,-8.25 36.2,-21.14 50.4,-38.67 14.3,-17.53 21.4,-41.14 21.4,-70.83 0,-23.51 -7.1,-44.76 -21.1,-63.73 -14,-18.97 -33.2,-33.82 -57.5,-44.53 -24.3,-10.73 -51.4,-16.09 -81,-16.09 -45.4,0 -82.9,10.72 -112.6,32.17 -29.7,21.44 -47.3,50.31 -52.6,86.61 l 68.6,14.23 c 4.2,-23.51 14.6,-41.56 31.3,-54.14"
           style="fill:#4c78c5;fill-opacity:1;fill-rule:nonzero;stroke:none;stroke-width:1.70587"
           transform="matrix(0.13333333,0,0,-0.13333333,0,2293.3333)"
           inkscape:label="Last S" />
        <path
           id="path33"
           d="m 19411.3,8155.01 h 66.8 l 303.1,-402.12 -61.9,-19.18 v 421.3 h 68.1 v -433.06 h -66.8 l -302.5,402.13 61.8,19.18 v -421.31 h -68.6 v 433.06"
           style="fill:#4c78c5;fill-opacity:1;fill-rule:nonzero;stroke:none;stroke-width:1.70587"
           transform="matrix(0.13333333,0,0,-0.13333333,0,2293.3333)"
           inkscape:label="N" />
        <path
           id="path32"
           d="m 18939.8,7857.44 c 13.7,-24.34 32.3,-43.52 56,-57.53 23.7,-14.03 50.2,-21.04 79.5,-21.04 28.9,0 55.2,7.01 78.9,21.04 23.7,14.01 42.4,33.19 56,57.53 13.6,24.33 20.4,51.35 20.4,81.04 0,29.7 -6.8,56.7 -20.4,81.05 -13.6,24.33 -32.3,43.5 -56,57.53 -23.7,14.02 -50,21.04 -78.9,21.04 -28.8,0 -55.2,-7.02 -79.2,-21.04 -23.9,-14.03 -42.6,-33.2 -56.3,-57.53 -13.6,-24.35 -20.4,-51.35 -20.4,-81.05 0,-29.69 6.8,-56.71 20.4,-81.04 z m -61.2,193.95 c 19.8,34.03 47,60.83 81.7,80.43 34.6,19.58 72.7,29.38 114.4,29.38 42.1,0 80.4,-9.8 115.1,-29.38 34.6,-19.6 61.8,-46.4 81.6,-80.43 19.8,-34.02 29.7,-71.66 29.7,-112.91 0,-41.24 -9.9,-78.87 -29.7,-112.9 -19.8,-34.03 -47,-60.84 -81.6,-80.42 -34.7,-19.6 -73,-29.39 -115.1,-29.39 -41.7,0 -79.8,9.79 -114.4,29.39 -34.7,19.58 -61.9,46.39 -81.7,80.42 -19.8,34.03 -29.7,71.66 -29.7,112.9 0,41.25 9.9,78.89 29.7,112.91"
           style="fill:#4c78c5;fill-opacity:1;fill-rule:nonzero;stroke:none;stroke-width:1.70587"
           transform="matrix(0.13333333,0,0,-0.13333333,0,2293.3333)"
           inkscape:label="O" />
        <path
           id="path31"
           d="m 18670.1,8155.01 h 68.7 v -433.06 h -68.7 v 433.06"
           style="fill:#4c78c5;fill-opacity:1;fill-rule:nonzero;stroke:none;stroke-width:1.70587"
           transform="matrix(0.13333333,0,0,-0.13333333,0,2293.3333)"
           inkscape:label="I" />
        <path
           id="path30"
           d="m 18370.1,8093.77 h -139.8 v 61.24 h 347.6 v -61.24 h -139.8 v -371.82 h -68 v 371.82"
           style="fill:#4c78c5;fill-opacity:1;fill-rule:nonzero;stroke:none;stroke-width:1.70587"
           transform="matrix(0.13333333,0,0,-0.13333333,0,2293.3333)"
           inkscape:label="T" />
        <path
           id="path29"
           d="m 17849.2,8155.01 v -267.87 c 0,-21.04 4.7,-39.71 14.2,-56 9.5,-16.3 22.8,-29.07 39.9,-38.35 17.1,-9.28 36.8,-13.92 59.1,-13.92 22.7,0 42.6,4.64 59.7,13.92 17.1,9.28 30.4,22.05 39.9,38.35 9.5,16.29 14.2,34.96 14.2,56 v 267.87 h 68.1 v -267.87 c 0,-33 -7.8,-62.49 -23.2,-88.47 -15.5,-25.98 -37,-46.31 -64.7,-60.94 -27.6,-14.64 -59,-21.96 -94,-21.96 -34.6,0 -65.9,7.32 -93.7,21.96 -27.9,14.63 -49.5,34.96 -65,60.94 -15.5,25.98 -23.2,55.47 -23.2,88.47 v 267.87 h 68.7"
           style="fill:#4c78c5;fill-opacity:1;fill-rule:nonzero;stroke:none;stroke-width:1.70587"
           transform="matrix(0.13333333,0,0,-0.13333333,0,2293.3333)"
           inkscape:label="U" />
        <path
           id="path28"
           d="m 17424.2,8155.01 h 68.6 V 7783.2 h 208.5 v -61.25 h -277.1 v 433.06"
           style="fill:#4c78c5;fill-opacity:1;fill-rule:nonzero;stroke:none;stroke-width:1.70587"
           transform="matrix(0.13333333,0,0,-0.13333333,0,2293.3333)"
           inkscape:label="L" />
        <path
           id="path27"
           d="m 16952.8,7857.44 c 13.6,-24.34 32.2,-43.52 55.9,-57.53 23.8,-14.03 50.2,-21.04 79.5,-21.04 28.9,0 55.2,7.01 78.9,21.04 23.7,14.01 42.4,33.19 56,57.53 13.6,24.33 20.4,51.35 20.4,81.04 0,29.7 -6.8,56.7 -20.4,81.05 -13.6,24.33 -32.3,43.5 -56,57.53 -23.7,14.02 -50,21.04 -78.9,21.04 -28.8,0 -55.2,-7.02 -79.1,-21.04 -24,-14.03 -42.7,-33.2 -56.3,-57.53 -13.7,-24.35 -20.5,-51.35 -20.5,-81.05 0,-29.69 6.8,-56.71 20.5,-81.04 z m -61.3,193.95 c 19.8,34.03 47,60.83 81.7,80.43 34.6,19.58 72.8,29.38 114.4,29.38 42.1,0 80.4,-9.8 115.1,-29.38 34.6,-19.6 61.9,-46.4 81.6,-80.43 19.9,-34.02 29.7,-71.66 29.7,-112.91 0,-41.24 -9.8,-78.87 -29.7,-112.9 -19.7,-34.03 -47,-60.84 -81.6,-80.42 -34.7,-19.6 -73,-29.39 -115.1,-29.39 -41.6,0 -79.8,9.79 -114.4,29.39 -34.7,19.58 -61.9,46.39 -81.7,80.42 -19.8,34.03 -29.7,71.66 -29.7,112.9 0,41.25 9.9,78.89 29.7,112.91"
           style="fill:#4c78c5;fill-opacity:1;fill-rule:nonzero;stroke:none;stroke-width:1.70587"
           transform="matrix(0.13333333,0,0,-0.13333333,0,2293.3333)"
           inkscape:label="O" />
        <path
           id="path26"
           d="m 16537.3,7794.64 c 16.7,-12.58 39.1,-18.86 67.2,-18.86 16.9,0 31.9,2.68 45.1,8.04 13.2,5.35 23.5,12.77 30.9,22.27 7.5,9.48 11.2,20.2 11.2,32.17 0,14.43 -4.4,26.08 -13,34.96 -8.7,8.86 -19.7,15.87 -33.1,21.03 -13.4,5.15 -31.5,10.83 -54.1,17.01 -30.6,7.83 -55.3,15.78 -74.3,23.82 -19,8.04 -35.2,20.42 -48.9,37.12 -13.6,16.7 -20.4,38.87 -20.4,66.51 0,23.09 6.6,43.92 19.8,62.48 13.2,18.56 31.5,33.19 54.8,43.93 23.3,10.72 49.2,16.08 77.6,16.08 28.9,0 54.6,-5.06 77,-15.16 22.5,-10.11 40.7,-24.13 54.5,-42.06 13.8,-17.94 22.6,-38.47 26.3,-61.56 l -69.3,-14.24 c -3.7,21.87 -13.5,39.49 -29.4,52.91 -15.9,13.39 -36.4,20.1 -61.6,20.1 -15.2,0 -28.8,-2.48 -40.8,-7.42 -12,-4.95 -21.3,-11.97 -28.1,-21.04 -6.8,-9.07 -10.2,-19.17 -10.2,-30.31 0,-13.61 4.2,-24.54 12.6,-32.79 8.5,-8.26 19,-14.75 31.6,-19.49 12.6,-4.75 30,-10 52.3,-15.77 30.9,-8.26 56,-16.51 75.4,-24.75 19.4,-8.25 36.2,-21.14 50.5,-38.67 14.2,-17.53 21.3,-41.14 21.3,-70.83 0,-23.51 -7,-44.76 -21,-63.73 -14.1,-18.97 -33.2,-33.82 -57.6,-44.53 -24.3,-10.73 -51.3,-16.09 -81,-16.09 -45.4,0 -82.9,10.72 -112.6,32.17 -29.7,21.44 -47.2,50.31 -52.6,86.61 l 68.7,14.23 c 4.1,-23.51 14.5,-41.56 31.2,-54.14"
           style="fill:#4c78c5;fill-opacity:1;fill-rule:nonzero;stroke:none;stroke-width:1.70587"
           transform="matrix(0.13333333,0,0,-0.13333333,0,2293.3333)"
           inkscape:label="First S" />
      </g>
    </g>
  </g>
</svg>
